<mxfile host="app.diagrams.net" modified="2023-04-19T16:17:16.466Z" agent="Mozilla/5.0 (X11; Linux x86_64; rv:109.0) Gecko/20100101 Firefox/112.0" etag="BX8yKuOfYX8JFvLFiAqf" version="21.1.9" type="github">
  <diagram name="Page-1" id="2YBvvXClWsGukQMizWep">
    <mxGraphModel dx="2524" dy="759" grid="1" gridSize="10" guides="1" tooltips="1" connect="1" arrows="1" fold="1" page="1" pageScale="1" pageWidth="850" pageHeight="1100" math="0" shadow="0">
      <root>
        <mxCell id="0" />
        <mxCell id="1" parent="0" />
        <mxCell id="rSKSXi-QU2KXNEiJ4-z2-8" value="" style="rounded=0;whiteSpace=wrap;html=1;" parent="1" vertex="1">
          <mxGeometry x="-70" y="70" width="60" height="40" as="geometry" />
        </mxCell>
        <mxCell id="aM9ryv3xv72pqoxQDRHE-1" value=":System" style="shape=umlLifeline;perimeter=lifelinePerimeter;whiteSpace=wrap;html=1;container=0;dropTarget=0;collapsible=0;recursiveResize=0;outlineConnect=0;portConstraint=eastwest;newEdgeStyle={&quot;edgeStyle&quot;:&quot;elbowEdgeStyle&quot;,&quot;elbow&quot;:&quot;vertical&quot;,&quot;curved&quot;:0,&quot;rounded&quot;:0};" parent="1" vertex="1">
          <mxGeometry x="40" y="40" width="100" height="300" as="geometry" />
        </mxCell>
        <mxCell id="aM9ryv3xv72pqoxQDRHE-2" value="" style="html=1;points=[];perimeter=orthogonalPerimeter;outlineConnect=0;targetShapes=umlLifeline;portConstraint=eastwest;newEdgeStyle={&quot;edgeStyle&quot;:&quot;elbowEdgeStyle&quot;,&quot;elbow&quot;:&quot;vertical&quot;,&quot;curved&quot;:0,&quot;rounded&quot;:0};" parent="aM9ryv3xv72pqoxQDRHE-1" vertex="1">
          <mxGeometry x="45" y="70" width="10" height="190" as="geometry" />
        </mxCell>
        <mxCell id="aM9ryv3xv72pqoxQDRHE-5" value=":Orb" style="shape=umlLifeline;perimeter=lifelinePerimeter;whiteSpace=wrap;html=1;container=0;dropTarget=0;collapsible=0;recursiveResize=0;outlineConnect=0;portConstraint=eastwest;newEdgeStyle={&quot;edgeStyle&quot;:&quot;elbowEdgeStyle&quot;,&quot;elbow&quot;:&quot;vertical&quot;,&quot;curved&quot;:0,&quot;rounded&quot;:0};" parent="1" vertex="1">
          <mxGeometry x="220" y="40" width="100" height="300" as="geometry" />
        </mxCell>
        <mxCell id="aM9ryv3xv72pqoxQDRHE-6" value="" style="html=1;points=[];perimeter=orthogonalPerimeter;outlineConnect=0;targetShapes=umlLifeline;portConstraint=eastwest;newEdgeStyle={&quot;edgeStyle&quot;:&quot;elbowEdgeStyle&quot;,&quot;elbow&quot;:&quot;vertical&quot;,&quot;curved&quot;:0,&quot;rounded&quot;:0};" parent="aM9ryv3xv72pqoxQDRHE-5" vertex="1">
          <mxGeometry x="45" y="80" width="10" height="170" as="geometry" />
        </mxCell>
        <mxCell id="aM9ryv3xv72pqoxQDRHE-7" value="send(frame)" style="html=1;verticalAlign=bottom;endArrow=none;edgeStyle=elbowEdgeStyle;elbow=vertical;curved=0;rounded=0;endFill=0;startArrow=classic;startFill=1;" parent="1" source="aM9ryv3xv72pqoxQDRHE-2" target="aM9ryv3xv72pqoxQDRHE-6" edge="1">
          <mxGeometry relative="1" as="geometry">
            <mxPoint x="195" y="130" as="sourcePoint" />
            <Array as="points">
              <mxPoint x="180" y="120" />
            </Array>
          </mxGeometry>
        </mxCell>
        <mxCell id="rSKSXi-QU2KXNEiJ4-z2-1" value=":MQ" style="shape=umlLifeline;perimeter=lifelinePerimeter;whiteSpace=wrap;html=1;container=0;dropTarget=0;collapsible=0;recursiveResize=0;outlineConnect=0;portConstraint=eastwest;newEdgeStyle={&quot;edgeStyle&quot;:&quot;elbowEdgeStyle&quot;,&quot;elbow&quot;:&quot;vertical&quot;,&quot;curved&quot;:0,&quot;rounded&quot;:0};" parent="1" vertex="1">
          <mxGeometry x="160" y="40" width="50" height="300" as="geometry" />
        </mxCell>
        <mxCell id="rSKSXi-QU2KXNEiJ4-z2-4" value="Ack/Nack" style="html=1;verticalAlign=bottom;endArrow=open;dashed=1;endSize=8;edgeStyle=elbowEdgeStyle;elbow=vertical;curved=0;rounded=0;" parent="1" source="aM9ryv3xv72pqoxQDRHE-2" target="rSKSXi-QU2KXNEiJ4-z2-1" edge="1">
          <mxGeometry relative="1" as="geometry">
            <mxPoint x="180" y="140" as="targetPoint" />
            <Array as="points">
              <mxPoint x="140" y="140" />
            </Array>
            <mxPoint x="100" y="140" as="sourcePoint" />
          </mxGeometry>
        </mxCell>
        <mxCell id="rSKSXi-QU2KXNEiJ4-z2-5" value="Frame capture" style="html=1;verticalAlign=bottom;endArrow=none;edgeStyle=elbowEdgeStyle;elbow=vertical;curved=0;rounded=0;endFill=0;startArrow=oval;startFill=1;" parent="1" edge="1">
          <mxGeometry relative="1" as="geometry">
            <mxPoint x="270" y="100" as="sourcePoint" />
            <Array as="points">
              <mxPoint x="355" y="100" />
            </Array>
            <mxPoint x="440" y="100" as="targetPoint" />
          </mxGeometry>
        </mxCell>
        <mxCell id="rSKSXi-QU2KXNEiJ4-z2-6" value="&lt;font style=&quot;font-size: 9px;&quot;&gt;:Calculation&lt;br&gt;Service&lt;/font&gt;" style="shape=umlLifeline;perimeter=lifelinePerimeter;whiteSpace=wrap;html=1;container=0;dropTarget=0;collapsible=0;recursiveResize=0;outlineConnect=0;portConstraint=eastwest;newEdgeStyle={&quot;edgeStyle&quot;:&quot;elbowEdgeStyle&quot;,&quot;elbow&quot;:&quot;vertical&quot;,&quot;curved&quot;:0,&quot;rounded&quot;:0};" parent="1" vertex="1">
          <mxGeometry x="-60" y="80" width="60" height="260" as="geometry" />
        </mxCell>
        <mxCell id="rSKSXi-QU2KXNEiJ4-z2-7" value="" style="html=1;points=[];perimeter=orthogonalPerimeter;outlineConnect=0;targetShapes=umlLifeline;portConstraint=eastwest;newEdgeStyle={&quot;edgeStyle&quot;:&quot;elbowEdgeStyle&quot;,&quot;elbow&quot;:&quot;vertical&quot;,&quot;curved&quot;:0,&quot;rounded&quot;:0};" parent="rSKSXi-QU2KXNEiJ4-z2-6" vertex="1">
          <mxGeometry x="25" y="55" width="10" height="150" as="geometry" />
        </mxCell>
        <mxCell id="rSKSXi-QU2KXNEiJ4-z2-9" value="getFramesBefore(t)" style="html=1;verticalAlign=bottom;endArrow=open;endSize=8;edgeStyle=elbowEdgeStyle;elbow=vertical;curved=0;rounded=0;" parent="1" source="rSKSXi-QU2KXNEiJ4-z2-7" target="aM9ryv3xv72pqoxQDRHE-2" edge="1">
          <mxGeometry relative="1" as="geometry">
            <mxPoint x="60" y="150" as="targetPoint" />
            <Array as="points">
              <mxPoint x="25" y="150" />
            </Array>
            <mxPoint x="-20" y="150" as="sourcePoint" />
          </mxGeometry>
        </mxCell>
        <mxCell id="rSKSXi-QU2KXNEiJ4-z2-10" value="frames" style="html=1;verticalAlign=bottom;endArrow=none;endSize=8;edgeStyle=elbowEdgeStyle;elbow=vertical;curved=0;rounded=0;startArrow=classic;startFill=1;endFill=0;dashed=1;" parent="1" source="rSKSXi-QU2KXNEiJ4-z2-7" target="aM9ryv3xv72pqoxQDRHE-2" edge="1">
          <mxGeometry relative="1" as="geometry">
            <mxPoint x="70" y="180" as="targetPoint" />
            <Array as="points">
              <mxPoint x="60" y="180" />
              <mxPoint x="25" y="180" />
            </Array>
            <mxPoint x="-20" y="180" as="sourcePoint" />
          </mxGeometry>
        </mxCell>
        <mxCell id="rSKSXi-QU2KXNEiJ4-z2-11" value="saveCalcResult()" style="html=1;verticalAlign=bottom;endArrow=open;endSize=8;edgeStyle=elbowEdgeStyle;elbow=vertical;curved=0;rounded=0;" parent="1" source="rSKSXi-QU2KXNEiJ4-z2-7" target="aM9ryv3xv72pqoxQDRHE-2" edge="1">
          <mxGeometry relative="1" as="geometry">
            <mxPoint x="70" y="260" as="targetPoint" />
            <Array as="points">
              <mxPoint x="25" y="260" />
            </Array>
            <mxPoint x="-20" y="260" as="sourcePoint" />
          </mxGeometry>
        </mxCell>
        <mxCell id="rSKSXi-QU2KXNEiJ4-z2-12" value="OK | ERROR" style="html=1;verticalAlign=bottom;endArrow=none;endSize=8;edgeStyle=elbowEdgeStyle;elbow=vertical;curved=0;rounded=0;startArrow=classic;startFill=1;endFill=0;dashed=1;" parent="1" source="rSKSXi-QU2KXNEiJ4-z2-7" target="aM9ryv3xv72pqoxQDRHE-2" edge="1">
          <mxGeometry relative="1" as="geometry">
            <mxPoint x="80" y="280" as="targetPoint" />
            <Array as="points">
              <mxPoint x="25" y="280" />
            </Array>
            <mxPoint x="-20" y="280" as="sourcePoint" />
          </mxGeometry>
        </mxCell>
        <mxCell id="rSKSXi-QU2KXNEiJ4-z2-14" value="(retry)" style="html=1;verticalAlign=bottom;endArrow=none;endSize=8;edgeStyle=elbowEdgeStyle;elbow=vertical;curved=0;rounded=0;startArrow=classic;startFill=1;endFill=0;dashed=1;entryX=0.4;entryY=0.433;entryDx=0;entryDy=0;entryPerimeter=0;" parent="1" source="aM9ryv3xv72pqoxQDRHE-2" target="rSKSXi-QU2KXNEiJ4-z2-1" edge="1">
          <mxGeometry relative="1" as="geometry">
            <mxPoint x="180" y="170" as="targetPoint" />
            <Array as="points">
              <mxPoint x="145" y="170" />
            </Array>
            <mxPoint x="100" y="170" as="sourcePoint" />
          </mxGeometry>
        </mxCell>
        <mxCell id="rSKSXi-QU2KXNEiJ4-z2-16" value="getOrbPositions()" style="html=1;verticalAlign=bottom;endArrow=open;endSize=8;edgeStyle=elbowEdgeStyle;elbow=vertical;curved=0;rounded=0;" parent="1" source="rSKSXi-QU2KXNEiJ4-z2-7" target="aM9ryv3xv72pqoxQDRHE-2" edge="1">
          <mxGeometry relative="1" as="geometry">
            <mxPoint x="80" y="210" as="targetPoint" />
            <Array as="points">
              <mxPoint y="200" />
              <mxPoint x="30" y="209.81" />
            </Array>
            <mxPoint x="-20" y="209.81" as="sourcePoint" />
          </mxGeometry>
        </mxCell>
        <mxCell id="rSKSXi-QU2KXNEiJ4-z2-17" value="positions" style="html=1;verticalAlign=bottom;endArrow=none;endSize=8;edgeStyle=elbowEdgeStyle;elbow=vertical;curved=0;rounded=0;startArrow=classic;startFill=1;endFill=0;dashed=1;" parent="1" source="rSKSXi-QU2KXNEiJ4-z2-7" target="aM9ryv3xv72pqoxQDRHE-2" edge="1">
          <mxGeometry relative="1" as="geometry">
            <mxPoint x="80" y="220" as="targetPoint" />
            <Array as="points">
              <mxPoint x="10" y="220" />
              <mxPoint y="230" />
              <mxPoint x="20" y="220" />
              <mxPoint x="40" y="220" />
              <mxPoint x="30" y="220" />
            </Array>
            <mxPoint x="-20" y="220" as="sourcePoint" />
          </mxGeometry>
        </mxCell>
      </root>
    </mxGraphModel>
  </diagram>
</mxfile>
